<svg xmlns="http://www.w3.org/2000/svg" version="1.1" xmlns:xlink="http://www.w3.org/1999/xlink" viewBox="0 0 200 200"><rect width="200" height="200" fill="url('#gradient')"></rect><defs><linearGradient id="gradient" gradientTransform="rotate(38 0.5 0.5)"><stop offset="0%" stop-color="#27d1bf"></stop><stop offset="100%" stop-color="#2e2f30"></stop></linearGradient></defs><g><g fill="#f9eeeb" transform="matrix(4.572562639543538,0,0,4.572562639543538,7.952476974346595,129.72067889100236)" stroke="#1d7d80" stroke-width="0.2"><path d="M9.08-7.79L3.74-5.95L9.08-4.15L9.08-1.15L0.45-4.67L0.45-7.27L9.08-10.78L9.08-7.79ZM15.95 0L11.27 0L11.27-14.22L15.85-14.22Q17.73-14.22 19.24-13.36Q20.74-12.51 21.59-10.95Q22.43-9.39 22.44-7.46L22.44-7.46L22.44-6.81Q22.44-4.85 21.62-3.31Q20.79-1.76 19.29-0.88Q17.79-0.01 15.95 0L15.95 0ZM15.85-11.57L14.70-11.57L14.70-2.64L15.89-2.64Q17.36-2.64 18.15-3.69Q18.95-4.74 18.95-6.81L18.95-6.81L18.95-7.42Q18.95-9.48 18.15-10.53Q17.36-11.57 15.85-11.57L15.85-11.57ZM30.04-14.22L25.18 1.22L22.84 1.22L27.70-14.22L30.04-14.22ZM31.23-4.13L36.54-5.98L31.23-7.78L31.23-10.77L39.81-7.26L39.81-4.66L31.23-1.14L31.23-4.13Z"></path></g></g></svg>